<svg width="500" height="625" fill="none" xmlns="http://www.w3.org/2000/svg"><g clip-path="url(#a)"><rect width="500" height="625" rx="10" fill="#00C6AE"/><path d="m325.989 235.623.011-.158a75.708 75.708 0 0 0 .117-3.514c.026-2.382-.028-5.775-.351-9.843-.644-8.128-2.36-18.998-6.665-29.891-4.307-10.899-11.225-21.869-22.295-30.11-11.083-8.252-26.217-13.687-46.804-13.687-22.076 0-38.481 5.422-50.643 13.647-12.154 8.22-19.971 19.171-24.988 30.074-5.013 10.895-7.245 21.77-8.226 29.905a103.013 103.013 0 0 0-.727 9.853 70.195 70.195 0 0 0-.016 2.778c.005.322.011.572.017.742l.007.196v.001l-.002.039-.013.317c-.01.277-.025.687-.04 1.22-.03 1.066-.063 2.626-.074 4.608-.021 3.965.047 9.623.401 16.41.709 13.568 2.566 31.686 7.169 49.826 4.599 18.122 11.967 36.386 23.774 50.142 11.851 13.808 28.15 23.039 50.409 23.039 22.261 0 38.398-9.233 50.001-23.051 11.556-13.763 18.585-32.033 22.846-50.156 4.265-18.142 5.784-36.26 6.239-49.828.228-6.787.19-12.445.095-16.41a200.353 200.353 0 0 0-.159-4.608 109.69 109.69 0 0 0-.064-1.22l-.018-.317-.001-.004Z" fill="#F8D9CB" stroke="#1A1A1A" stroke-width="3"/><path fill-rule="evenodd" clip-rule="evenodd" d="M324.461 264.051s8.156-11.79 17.831-6.07c9.677 5.716 6.597 26.826 0 37.385-6.597 10.555-17.247 15.772-23.135 7.667" fill="#F8D9CB"/><path d="M324.461 264.051s8.156-11.79 17.831-6.07c9.677 5.716 6.597 26.826 0 37.385-6.597 10.555-17.247 15.772-23.135 7.667" stroke="#1A1A1A" stroke-width="3" stroke-linecap="round"/><path d="M341.233 271.176s-10.903-3.637-18.641 12.418" stroke="#1A1A1A" stroke-width="2" stroke-linecap="round" stroke-linejoin="round"/><path d="M327.885 275.738s11.864 6.348 4.026 15.884" stroke="#1A1A1A" stroke-width="2" stroke-linecap="round" stroke-linejoin="round"/><path fill-rule="evenodd" clip-rule="evenodd" d="M167.511 264.051s-8.156-11.79-17.83-6.07c-9.675 5.716-6.597 26.826 0 37.385 6.597 10.555 17.247 15.772 23.138 7.667" fill="#F8D9CB"/><path d="M167.511 264.051s-8.156-11.79-17.83-6.07c-9.675 5.716-6.597 26.826 0 37.385 6.597 10.555 17.247 15.772 23.138 7.667" stroke="#1A1A1A" stroke-width="3" stroke-linecap="round"/><path d="M150.74 271.176s10.902-3.637 18.643 12.418" stroke="#1A1A1A" stroke-width="2" stroke-linecap="round" stroke-linejoin="round"/><path d="M164.089 275.738s-11.864 6.348-4.026 15.884" stroke="#1A1A1A" stroke-width="2" stroke-linecap="round" stroke-linejoin="round"/><path d="M223.257 312.974s11.868 8.284 26.246 8.284c14.382 0 24.316-8.284 24.316-8.284" stroke="#1A1A1A" stroke-width="3" stroke-linecap="round" stroke-linejoin="round"/><path fill-rule="evenodd" clip-rule="evenodd" d="M206.387 181.991c31.447 9.886 25.54 18.997 61.449 23.685 20.179 2.634 50.727-12.172 50.727-12.172s5.574 14.035 6.972 28.335c2.087 21.357 0 42.979 0 42.979l8.694-2.821s.673-7.702 4.528-14.824c4.707-8.697 15.138-14.287 15.138-14.287s4.347-8.948 4.347-17.995c0-10.644-4.347-21.387-4.347-21.387s-5.595-7.367-5.595-14.643c0-6.046 5.595-18.203 5.595-18.203s.006-19.55-9.388-28.154c-12.817-11.741-20.158-13.022-38.285-13.833-28.933-1.296-55.835 9.856-55.835 9.856s-12.862-13.409-28.606-19.671c-13.2-5.25-29.282-3.352-29.282-3.352s-9.547 1.449-12.129 9.845c-3.077 10.003-3.077 30.434-3.077 30.434s-1.369 3.398-4.271 4.137c-5.22 1.329-6.948-1.809-11.971 0-9.894 3.561-14.633 3.792-17.864 10.738-3.5 7.524 0 21.333 0 21.333s-13.083 9.949-13.912 23.685c-.631 10.448 10.99 24.685 10.99 24.685s11.231 9.722 16.787 16.812c7.569 9.66 9.463 16.688 9.463 16.688s8.035-16.546 10.778-33.5c2.646-16.351-1.792-21.368 3.077-36.857 2.733-8.695 2.732-5.573 12.129-11.513 5.15-3.255 7.667-1.956 13.888 0Z" fill="#272727"/><path fill-rule="evenodd" clip-rule="evenodd" d="M193.808 354.82v60.574s-14.197 24.328-57.774 31.883c0 0 75.425 71.634 113.966 71.634 35.635 0 112.725-71.634 112.725-71.634s-58.779-13.003-62.836-31.883V354.82" fill="#F8D9CB"/><path d="M193.808 354.82v60.574s-14.197 24.328-57.774 31.883c0 0 75.425 71.634 113.966 71.634 35.635 0 112.725-71.634 112.725-71.634s-58.779-13.003-62.836-31.883V354.82" stroke="#1A1A1A" stroke-width="3" stroke-linecap="round" stroke-linejoin="round"/><g clip-path="url(#b)"><path fill-rule="evenodd" clip-rule="evenodd" d="m183.875 415.504-12.921 8.452-62.177 20.693-16.174 17.072L70.4 537.967 59 623.504h382l-23.978-133.738-20.048-42.148-74.057-26.926-18.993-3.002-7.575 13.926-19.572 9.757h-55.491l-37.411-25.869Z" fill="#F3D338"/><path fill-rule="evenodd" clip-rule="evenodd" d="M192.914 416.504s7.614 12.694 13.428 15.343c14.666 6.683 28.905 7.567 42.513 7.567 13.245 0 30.353-4.09 43.511-10.558 2.338-1.149 5.748-2.82 8.535-4.918 1.76-1.326 2.335-7.434 2.335-7.434l12.66 2.935L324 446.202l-121.285 49.302L180 428.856s.545-7.248 2.813-9.417c2.268-2.169 10.101-2.935 10.101-2.935Z" fill="#F7F7F7" stroke="#969AA8" stroke-width="2"/><path fill-rule="evenodd" clip-rule="evenodd" d="M186.346 417.504s.861.071 1.136 2.19c.414 3.199.213 10.728 2.549 12.905 11.252 10.488 16.779 12.587 41.069 17.49 16.519 3.334 40.174 1.138 52.432-4.082 26.003-11.073 24.09-28.503 24.09-28.503L329 428.162l-3.501 79.64s-124.796 2.702-125.726 2.702c-.93 0-26.229-53.217-27.811-56.299-1.583-3.082-7.962-16.62-7.962-16.62s.661-6.98 8.911-14.394c2.836-2.549 13.435-5.687 13.435-5.687Z" fill="#F3D338"/><path fill-rule="evenodd" clip-rule="evenodd" d="M172.078 425.504s1.751 19.337 22.675 29.905c18.989 9.59 53.576 10.337 53.576 10.337l.258 4.758s-38.163-1.998-57.549-12.588c-20.258-11.066-18.96-32.412-18.96-32.412ZM323.59 421.508s-.749 19.403-21.098 31.065c-18.468 10.584-52.969 13.162-52.969 13.162l-.011 4.765s38.008-4.017 56.82-15.62c19.657-12.124 17.258-33.372 17.258-33.372Z" fill="#C9AB1A"/><path d="M59 623.504s15.264-126.5 33.561-161.783c6.926-13.356 26.772-22.208 26.772-22.208l51.483-15.557s3.407-5.319 9.322-7.408c5.915-2.089 12.862 0 12.862 0" stroke="#C9AB1A" stroke-width="5" stroke-linecap="round"/><path fill-rule="evenodd" clip-rule="evenodd" d="M113.818 512.711s6.461 12.79 11.445 30.397c6.324 22.343 4.988 26.604 11.17 49.502 4.671 17.3 10.536 30.894 10.536 30.894h-21.706l-11.445-110.793ZM88.104 537.967l17.54 85.537s-12.184-19.956-17.54-49.768c-2.394-13.332 0-35.769 0-35.769Z" fill="#E3C533"/><path d="M108.716 492.277s2.358 39.189 6.031 68.318c4.601 36.484 10.516 62.909 10.516 62.909M441 628.504s-15.266-126.831-33.566-162.206c-6.927-13.391-8.091-16.785-19.45-22.626-24.26-9.085-64.797-20.694-64.797-20.694s-3.407-5.333-9.323-7.427c-5.916-2.094-12.864 0-12.864 0" stroke="#C9AB1A" stroke-width="5" stroke-linecap="round"/><path fill-rule="evenodd" clip-rule="evenodd" d="M376.164 510.074s-5.242 20.171-10.226 37.824c-6.326 22.401-4.989 26.674-11.172 49.632-4.672 17.345-10.538 30.974-10.538 30.974h21.71l10.226-118.43ZM410.426 542.743l-17.542 85.761s12.186-20.008 17.542-49.898c2.396-13.367 0-35.863 0-35.863Z" fill="#E3C533"/><path d="M382.487 496.933s-2.359 39.292-6.032 68.497c-4.602 36.58-10.518 63.074-10.518 63.074" stroke="#C9AB1A" stroke-width="5" stroke-linecap="round"/><path d="M188.082 419.707s-.539 8.245 2.467 11.936c9.786 12.016 30.315 18.861 57.285 18.861 28.488 0 45.096-6.666 56.826-19.886 3.07-3.46 2.112-12.114 2.112-12.114" stroke="#C9AB1A" stroke-width="3" stroke-linecap="round"/><path opacity=".635" d="m218.581 529.054 6.96-20h-3.12v-.76h6.12v.76h-1.88l-9.64 27.64h-3.36l-10.2-27.64h-1.84v-.76h13.08v.76h-2.84l6.72 20Zm38.743-7.24c0 5.493-1.547 9.32-4.64 11.48-2.854 2-6.774 3-11.76 3h-11.32v-.76h2.64v-26.48h-2.64v-.76h12.36c5.12 0 8.96 1.053 11.52 3.16 2.56 2.08 3.84 5.533 3.84 10.36Zm-17.28 13.72h1.52c2.693 0 4.613-.947 5.76-2.84 1.173-1.92 1.76-5.12 1.76-9.6v-2.32c0-6-1.147-9.614-3.44-10.84-1.094-.587-2.64-.88-4.64-.88h-.96v26.48Zm34.915-26.88c-4.133 0-6.2 3.986-6.2 11.96v3.16c0 3.786.547 6.76 1.64 8.92 1.093 2.133 2.707 3.2 4.84 3.2 2.933 0 5.627-2.854 8.08-8.56h.72l-.28 8.92h-.44c-.16-.294-.307-.494-.44-.6-.133-.134-.333-.2-.6-.2-.24 0-1.2.213-2.88.64-1.68.4-3.387.6-5.12.6-4.347 0-7.72-1.174-10.12-3.52-2.373-2.347-3.56-5.867-3.56-10.56 0-4.72 1.24-8.36 3.72-10.92 2.507-2.56 5.867-3.84 10.08-3.84 1.627 0 3.213.213 4.76.64 1.573.4 2.493.6 2.76.6.267 0 .467-.054.6-.16.133-.134.28-.347.44-.64h.44l.32 8.68h-.72c-1.2-2.694-2.44-4.747-3.72-6.16-1.253-1.44-2.693-2.16-4.32-2.16Z" fill="#fff"/></g><path fill-rule="evenodd" clip-rule="evenodd" d="M235.967 401.974c18.397 10.481 42.187 6.414 54.672-10.684 6.226-8.53 7.97-19.083 7.97-37.541 0 0-17.287 24.712-47.532 25.967-30.241 1.255-56.099-23.263-56.099-23.263s15.657 31.085 40.989 45.521Z" fill="#D0AD9C" fill-opacity=".7"/><path fill-rule="evenodd" clip-rule="evenodd" d="M245.353 256.754s9.662 23.481 9.131 30.229c-.53 6.747-9.376 6.84-9.376 6.84l.245-37.069Z" fill="#C3A394"/><path fill-rule="evenodd" clip-rule="evenodd" d="M221.286 252.861c0 6.073-3.581 11-8.002 11-4.418 0-7.998-4.927-7.998-11s3.58-11 7.998-11c4.421 0 8.002 4.927 8.002 11ZM229.477 218.951l-3.515 4.541s-10-2.271-19.122-2.271-19 2.271-19 2.271 1.077-2.362 3.506-4.541c2.428-2.179 6.329-4.06 9.122-4.06 2.792 0 6.372 0 13.595.79 7.223.79 15.414 3.27 15.414 3.27ZM272.031 252.861c0 6.073 3.581 11 8.002 11 4.418 0 7.998-4.927 7.998-11s-3.58-11-7.998-11c-4.421 0-8.002 4.927-8.002 11ZM263.84 218.951l3.515 4.541s10-2.271 19.122-2.271 19 2.271 19 2.271-1.077-2.362-3.506-4.541c-2.428-2.179-6.329-4.06-9.122-4.06-2.792 0-6.372 0-13.595.79-7.223.79-15.414 3.27-15.414 3.27Z" fill="#1A1A1A"/><path clip-rule="evenodd" d="M237.245 256.657c0 16.73-13.565 30.295-30.295 30.295-16.731 0-30.296-13.565-30.296-30.295 0-16.731 13.565-30.296 30.296-30.296 16.73 0 30.295 13.565 30.295 30.296ZM311.67 256.657c0 16.73-13.565 30.295-30.296 30.295-16.733 0-30.295-13.565-30.295-30.295 0-16.731 13.562-30.296 30.295-30.296 16.731 0 30.296 13.565 30.296 30.296Z" stroke="#1A1A1A" stroke-width="2" stroke-linecap="round" stroke-linejoin="round"/><path d="M237.245 256.657s7.178-6.698 13.835 0M177.799 264.818l-10.687-8.402M310.584 264.818l14.224-11.183" stroke="#1A1A1A" stroke-width="2" stroke-linecap="round" stroke-linejoin="round"/></g><rect x="1" y="1" width="498" height="623" rx="9" stroke="#000" stroke-width="2"/><defs><clipPath id="a"><rect width="500" height="625" rx="10" fill="#fff"/></clipPath><clipPath id="b"><path fill="#fff" transform="translate(59 414.504)" d="M0 0h382v214H0z"/></clipPath></defs></svg>